<mxfile host="app.diagrams.net" modified="2021-10-11T13:20:49.527Z" agent="5.0 (Windows NT 10.0; Win64; x64) AppleWebKit/537.36 (KHTML, like Gecko) Chrome/94.0.4606.71 Safari/537.36" etag="OvAHsbVK0hIi7uFgUGGD" version="15.3.3" type="github">
  <diagram id="HQQGfWpyFEZv7yH24sN_" name="Page-1">
    <mxGraphModel dx="1475" dy="809" grid="1" gridSize="10" guides="1" tooltips="1" connect="1" arrows="1" fold="1" page="1" pageScale="1" pageWidth="850" pageHeight="1100" math="0" shadow="0">
      <root>
        <mxCell id="0" />
        <mxCell id="1" parent="0" />
        <mxCell id="DaJtr_ad31TglInZLsW0-5" style="edgeStyle=orthogonalEdgeStyle;rounded=0;orthogonalLoop=1;jettySize=auto;html=1;entryX=0.45;entryY=0;entryDx=0;entryDy=0;entryPerimeter=0;" parent="1" target="DaJtr_ad31TglInZLsW0-11" edge="1">
          <mxGeometry relative="1" as="geometry">
            <mxPoint x="64" y="320" as="sourcePoint" />
          </mxGeometry>
        </mxCell>
        <mxCell id="DaJtr_ad31TglInZLsW0-7" style="edgeStyle=orthogonalEdgeStyle;rounded=0;orthogonalLoop=1;jettySize=auto;html=1;entryX=0;entryY=0.5;entryDx=0;entryDy=0;" parent="1" source="DaJtr_ad31TglInZLsW0-8" target="DaJtr_ad31TglInZLsW0-23" edge="1">
          <mxGeometry relative="1" as="geometry">
            <Array as="points">
              <mxPoint x="170" y="260" />
              <mxPoint x="170" y="400" />
            </Array>
          </mxGeometry>
        </mxCell>
        <mxCell id="DaJtr_ad31TglInZLsW0-49" style="edgeStyle=none;curved=1;rounded=0;orthogonalLoop=1;jettySize=auto;html=1;entryX=0.5;entryY=1;entryDx=0;entryDy=0;endArrow=classic;sourcePerimeterSpacing=8;targetPerimeterSpacing=8;endFill=1;exitX=0.5;exitY=0;exitDx=0;exitDy=0;exitPerimeter=0;" parent="1" source="DaJtr_ad31TglInZLsW0-8" target="DaJtr_ad31TglInZLsW0-13" edge="1">
          <mxGeometry relative="1" as="geometry" />
        </mxCell>
        <mxCell id="DaJtr_ad31TglInZLsW0-53" style="edgeStyle=none;curved=1;rounded=0;orthogonalLoop=1;jettySize=auto;html=1;entryX=0.5;entryY=1;entryDx=0;entryDy=0;endArrow=classic;endFill=1;sourcePerimeterSpacing=8;targetPerimeterSpacing=8;" parent="1" target="DaJtr_ad31TglInZLsW0-12" edge="1">
          <mxGeometry relative="1" as="geometry">
            <mxPoint x="65" y="220" as="sourcePoint" />
          </mxGeometry>
        </mxCell>
        <mxCell id="DaJtr_ad31TglInZLsW0-54" style="edgeStyle=none;curved=1;rounded=0;orthogonalLoop=1;jettySize=auto;html=1;entryX=0.5;entryY=1;entryDx=0;entryDy=0;endArrow=classic;endFill=1;sourcePerimeterSpacing=8;targetPerimeterSpacing=8;" parent="1" target="DaJtr_ad31TglInZLsW0-9" edge="1">
          <mxGeometry relative="1" as="geometry">
            <mxPoint x="65" y="220" as="sourcePoint" />
          </mxGeometry>
        </mxCell>
        <mxCell id="DaJtr_ad31TglInZLsW0-55" style="edgeStyle=none;curved=1;rounded=0;orthogonalLoop=1;jettySize=auto;html=1;entryX=0.5;entryY=1;entryDx=0;entryDy=0;endArrow=classic;endFill=1;sourcePerimeterSpacing=8;targetPerimeterSpacing=8;" parent="1" target="DaJtr_ad31TglInZLsW0-10" edge="1">
          <mxGeometry relative="1" as="geometry">
            <mxPoint x="65" y="220" as="sourcePoint" />
          </mxGeometry>
        </mxCell>
        <mxCell id="DaJtr_ad31TglInZLsW0-56" style="edgeStyle=none;curved=1;rounded=0;orthogonalLoop=1;jettySize=auto;html=1;entryX=0.5;entryY=1;entryDx=0;entryDy=0;endArrow=classic;endFill=1;sourcePerimeterSpacing=8;targetPerimeterSpacing=8;" parent="1" target="DaJtr_ad31TglInZLsW0-14" edge="1">
          <mxGeometry relative="1" as="geometry">
            <mxPoint x="70" y="220" as="sourcePoint" />
          </mxGeometry>
        </mxCell>
        <mxCell id="DaJtr_ad31TglInZLsW0-8" value="Player&lt;br&gt;" style="shape=umlActor;verticalLabelPosition=bottom;verticalAlign=top;html=1;" parent="1" vertex="1">
          <mxGeometry x="50" y="230" width="30" height="60" as="geometry" />
        </mxCell>
        <mxCell id="DaJtr_ad31TglInZLsW0-9" value="New game" style="ellipse;whiteSpace=wrap;html=1;" parent="1" vertex="1">
          <mxGeometry x="260" y="40" width="120" height="80" as="geometry" />
        </mxCell>
        <mxCell id="DaJtr_ad31TglInZLsW0-10" value="Load game" style="ellipse;whiteSpace=wrap;html=1;" parent="1" vertex="1">
          <mxGeometry x="390" y="40" width="120" height="80" as="geometry" />
        </mxCell>
        <mxCell id="DaJtr_ad31TglInZLsW0-11" value="Exit" style="ellipse;whiteSpace=wrap;html=1;" parent="1" vertex="1">
          <mxGeometry x="10" y="470" width="120" height="80" as="geometry" />
        </mxCell>
        <mxCell id="DaJtr_ad31TglInZLsW0-12" value="Save game" style="ellipse;whiteSpace=wrap;html=1;" parent="1" vertex="1">
          <mxGeometry x="130" y="40" width="120" height="80" as="geometry" />
        </mxCell>
        <mxCell id="DaJtr_ad31TglInZLsW0-13" value="Pause game" style="ellipse;whiteSpace=wrap;html=1;" parent="1" vertex="1">
          <mxGeometry x="5" y="40" width="120" height="80" as="geometry" />
        </mxCell>
        <mxCell id="DaJtr_ad31TglInZLsW0-14" value="Restart game" style="ellipse;whiteSpace=wrap;html=1;" parent="1" vertex="1">
          <mxGeometry x="520" y="40" width="120" height="80" as="geometry" />
        </mxCell>
        <mxCell id="DaJtr_ad31TglInZLsW0-15" value="&#xa;&#xa;&lt;b style=&quot;font-weight: normal&quot; id=&quot;docs-internal-guid-a94aeb03-7fff-4e99-6885-8a07238fca81&quot;&gt;&lt;span style=&quot;font-size: 12pt; font-family: &amp;quot;times new roman&amp;quot;; color: rgb(0, 0, 0); background-color: transparent; font-weight: 400; font-style: normal; font-variant: normal; text-decoration: none; vertical-align: baseline;&quot;&gt;Player Movement&lt;/span&gt;&lt;/b&gt;&#xa;&#xa;" style="ellipse;whiteSpace=wrap;html=1;" parent="1" vertex="1">
          <mxGeometry x="530" y="510" width="120" height="80" as="geometry" />
        </mxCell>
        <mxCell id="DaJtr_ad31TglInZLsW0-16" value="&lt;span id=&quot;docs-internal-guid-cc2e679d-7fff-86c4-fdf3-bd1ae3daabf5&quot;&gt;&lt;span style=&quot;font-size: 12pt ; font-family: &amp;#34;times new roman&amp;#34; ; background-color: transparent ; vertical-align: baseline&quot;&gt;Firing Projectile&lt;/span&gt;&lt;/span&gt;" style="ellipse;whiteSpace=wrap;html=1;" parent="1" vertex="1">
          <mxGeometry x="530" y="420" width="120" height="80" as="geometry" />
        </mxCell>
        <mxCell id="DaJtr_ad31TglInZLsW0-17" value="&lt;span id=&quot;docs-internal-guid-142e7fff-7fff-a3db-1e89-7b519f3cf36d&quot;&gt;&lt;span style=&quot;font-size: 12pt ; font-family: &amp;#34;times new roman&amp;#34; ; background-color: transparent ; vertical-align: baseline&quot;&gt;Got hit&lt;/span&gt;&lt;/span&gt;" style="ellipse;whiteSpace=wrap;html=1;" parent="1" vertex="1">
          <mxGeometry x="530" y="330" width="120" height="80" as="geometry" />
        </mxCell>
        <mxCell id="DaJtr_ad31TglInZLsW0-18" value="&lt;span id=&quot;docs-internal-guid-8010e8fd-7fff-c1d7-65d5-8d9a37c29608&quot;&gt;&lt;span style=&quot;font-size: 12pt ; font-family: &amp;#34;times new roman&amp;#34; ; background-color: transparent ; vertical-align: baseline&quot;&gt;Melee attack&lt;/span&gt;&lt;/span&gt;" style="ellipse;whiteSpace=wrap;html=1;" parent="1" vertex="1">
          <mxGeometry x="530" y="230" width="120" height="80" as="geometry" />
        </mxCell>
        <mxCell id="DaJtr_ad31TglInZLsW0-23" value="Play Game" style="ellipse;whiteSpace=wrap;html=1;" parent="1" vertex="1">
          <mxGeometry x="250" y="360" width="120" height="80" as="geometry" />
        </mxCell>
        <mxCell id="DaJtr_ad31TglInZLsW0-62" style="edgeStyle=none;curved=1;rounded=0;orthogonalLoop=1;jettySize=auto;html=1;entryX=1;entryY=0.5;entryDx=0;entryDy=0;endArrow=classic;endFill=1;sourcePerimeterSpacing=8;targetPerimeterSpacing=8;" parent="1" source="DaJtr_ad31TglInZLsW0-27" target="DaJtr_ad31TglInZLsW0-18" edge="1">
          <mxGeometry relative="1" as="geometry" />
        </mxCell>
        <mxCell id="DaJtr_ad31TglInZLsW0-87" style="edgeStyle=none;curved=1;rounded=0;orthogonalLoop=1;jettySize=auto;html=1;endArrow=none;endFill=0;startSize=6;endSize=6;sourcePerimeterSpacing=8;targetPerimeterSpacing=8;" parent="1" source="DaJtr_ad31TglInZLsW0-27" edge="1">
          <mxGeometry relative="1" as="geometry">
            <mxPoint x="910" y="270" as="targetPoint" />
          </mxGeometry>
        </mxCell>
        <mxCell id="DaJtr_ad31TglInZLsW0-27" value="Melee Monster&lt;br&gt;" style="shape=umlActor;verticalLabelPosition=bottom;verticalAlign=top;html=1;" parent="1" vertex="1">
          <mxGeometry x="800" y="240" width="30" height="60" as="geometry" />
        </mxCell>
        <mxCell id="DaJtr_ad31TglInZLsW0-89" style="edgeStyle=none;curved=1;rounded=0;orthogonalLoop=1;jettySize=auto;html=1;endArrow=none;endFill=0;startSize=6;endSize=6;sourcePerimeterSpacing=8;targetPerimeterSpacing=8;" parent="1" source="DaJtr_ad31TglInZLsW0-28" edge="1">
          <mxGeometry relative="1" as="geometry">
            <mxPoint x="910" y="460" as="targetPoint" />
          </mxGeometry>
        </mxCell>
        <mxCell id="DaJtr_ad31TglInZLsW0-28" value="Range Monster&lt;br&gt;" style="shape=umlActor;verticalLabelPosition=bottom;verticalAlign=top;html=1;" parent="1" vertex="1">
          <mxGeometry x="800" y="430" width="30" height="60" as="geometry" />
        </mxCell>
        <mxCell id="DaJtr_ad31TglInZLsW0-41" value="&amp;lt;&amp;lt;include&amp;gt;&amp;gt;" style="html=1;verticalAlign=bottom;labelBackgroundColor=none;endArrow=open;endFill=0;dashed=1;startSize=14;endSize=14;sourcePerimeterSpacing=8;targetPerimeterSpacing=8;exitX=1;exitY=0.5;exitDx=0;exitDy=0;entryX=0;entryY=0.5;entryDx=0;entryDy=0;" parent="1" source="DaJtr_ad31TglInZLsW0-23" target="DaJtr_ad31TglInZLsW0-17" edge="1">
          <mxGeometry width="160" relative="1" as="geometry">
            <mxPoint x="450" y="340" as="sourcePoint" />
            <mxPoint x="560" y="340" as="targetPoint" />
            <Array as="points" />
          </mxGeometry>
        </mxCell>
        <mxCell id="DaJtr_ad31TglInZLsW0-42" value="&amp;lt;&amp;lt;include&amp;gt;&amp;gt;" style="html=1;verticalAlign=bottom;labelBackgroundColor=none;endArrow=open;endFill=0;dashed=1;startSize=14;endSize=14;sourcePerimeterSpacing=8;targetPerimeterSpacing=8;exitX=1;exitY=0.5;exitDx=0;exitDy=0;entryX=0;entryY=0.5;entryDx=0;entryDy=0;" parent="1" source="DaJtr_ad31TglInZLsW0-23" target="DaJtr_ad31TglInZLsW0-16" edge="1">
          <mxGeometry width="160" relative="1" as="geometry">
            <mxPoint x="430" y="350" as="sourcePoint" />
            <mxPoint x="590" y="280" as="targetPoint" />
            <Array as="points" />
          </mxGeometry>
        </mxCell>
        <mxCell id="DaJtr_ad31TglInZLsW0-43" value="&amp;lt;&amp;lt;include&amp;gt;&amp;gt;" style="html=1;verticalAlign=bottom;labelBackgroundColor=none;endArrow=open;endFill=0;dashed=1;startSize=14;endSize=14;sourcePerimeterSpacing=8;targetPerimeterSpacing=8;exitX=1;exitY=0.5;exitDx=0;exitDy=0;entryX=0;entryY=0.5;entryDx=0;entryDy=0;" parent="1" source="DaJtr_ad31TglInZLsW0-23" target="DaJtr_ad31TglInZLsW0-18" edge="1">
          <mxGeometry width="160" relative="1" as="geometry">
            <mxPoint x="430" y="350" as="sourcePoint" />
            <mxPoint x="590" y="390" as="targetPoint" />
            <Array as="points" />
          </mxGeometry>
        </mxCell>
        <mxCell id="DaJtr_ad31TglInZLsW0-44" value="&amp;lt;&amp;lt;include&amp;gt;&amp;gt;" style="html=1;verticalAlign=bottom;labelBackgroundColor=none;endArrow=open;endFill=0;dashed=1;startSize=14;endSize=14;sourcePerimeterSpacing=8;targetPerimeterSpacing=8;entryX=0;entryY=0.5;entryDx=0;entryDy=0;exitX=1;exitY=0.5;exitDx=0;exitDy=0;" parent="1" source="DaJtr_ad31TglInZLsW0-23" target="DaJtr_ad31TglInZLsW0-15" edge="1">
          <mxGeometry width="160" relative="1" as="geometry">
            <mxPoint x="419" y="340" as="sourcePoint" />
            <mxPoint x="590" y="380" as="targetPoint" />
            <Array as="points" />
          </mxGeometry>
        </mxCell>
        <mxCell id="DaJtr_ad31TglInZLsW0-66" value="Die&lt;br&gt;" style="ellipse;whiteSpace=wrap;html=1;" parent="1" vertex="1">
          <mxGeometry x="530" y="610" width="120" height="80" as="geometry" />
        </mxCell>
        <mxCell id="DaJtr_ad31TglInZLsW0-69" value="" style="endArrow=classic;endFill=1;html=1;edgeStyle=orthogonalEdgeStyle;align=left;verticalAlign=top;startSize=6;endSize=6;sourcePerimeterSpacing=8;targetPerimeterSpacing=8;entryX=1;entryY=0.5;entryDx=0;entryDy=0;" parent="1" target="DaJtr_ad31TglInZLsW0-17" edge="1">
          <mxGeometry x="-1" relative="1" as="geometry">
            <mxPoint x="740" y="270" as="sourcePoint" />
            <mxPoint x="680" y="440" as="targetPoint" />
            <Array as="points">
              <mxPoint x="740" y="370" />
            </Array>
          </mxGeometry>
        </mxCell>
        <mxCell id="DaJtr_ad31TglInZLsW0-71" value="" style="endArrow=classic;endFill=1;html=1;edgeStyle=orthogonalEdgeStyle;align=left;verticalAlign=top;startSize=6;endSize=6;sourcePerimeterSpacing=8;targetPerimeterSpacing=8;entryX=1;entryY=0.5;entryDx=0;entryDy=0;" parent="1" source="DaJtr_ad31TglInZLsW0-28" target="DaJtr_ad31TglInZLsW0-16" edge="1">
          <mxGeometry x="-1" relative="1" as="geometry">
            <mxPoint x="740" y="360" as="sourcePoint" />
            <mxPoint x="680" y="460" as="targetPoint" />
            <Array as="points">
              <mxPoint x="770" y="460" />
              <mxPoint x="770" y="460" />
            </Array>
          </mxGeometry>
        </mxCell>
        <mxCell id="DaJtr_ad31TglInZLsW0-75" value="" style="endArrow=classic;endFill=1;endSize=6;html=1;sourcePerimeterSpacing=8;targetPerimeterSpacing=8;" parent="1" edge="1">
          <mxGeometry width="160" relative="1" as="geometry">
            <mxPoint x="690" y="460" as="sourcePoint" />
            <mxPoint x="690" y="370" as="targetPoint" />
          </mxGeometry>
        </mxCell>
        <mxCell id="DaJtr_ad31TglInZLsW0-76" value="&amp;lt;&amp;lt;include&amp;gt;&amp;gt;" style="html=1;verticalAlign=bottom;labelBackgroundColor=none;endArrow=open;endFill=0;dashed=1;startSize=14;endSize=14;sourcePerimeterSpacing=8;targetPerimeterSpacing=8;entryX=0;entryY=0.5;entryDx=0;entryDy=0;exitX=1;exitY=0.5;exitDx=0;exitDy=0;" parent="1" source="DaJtr_ad31TglInZLsW0-23" target="DaJtr_ad31TglInZLsW0-66" edge="1">
          <mxGeometry width="160" relative="1" as="geometry">
            <mxPoint x="380" y="410" as="sourcePoint" />
            <mxPoint x="540" y="560" as="targetPoint" />
            <Array as="points" />
          </mxGeometry>
        </mxCell>
        <mxCell id="DaJtr_ad31TglInZLsW0-82" value="Move&lt;br&gt;" style="ellipse;whiteSpace=wrap;html=1;" parent="1" vertex="1">
          <mxGeometry x="990" y="420" width="120" height="80" as="geometry" />
        </mxCell>
        <mxCell id="DaJtr_ad31TglInZLsW0-85" value="" style="endArrow=classic;html=1;startSize=6;endSize=6;sourcePerimeterSpacing=8;targetPerimeterSpacing=8;entryX=1;entryY=0.5;entryDx=0;entryDy=0;" parent="1" target="DaJtr_ad31TglInZLsW0-66" edge="1">
          <mxGeometry width="50" height="50" relative="1" as="geometry">
            <mxPoint x="910" y="650" as="sourcePoint" />
            <mxPoint x="830" y="600" as="targetPoint" />
            <Array as="points" />
          </mxGeometry>
        </mxCell>
        <mxCell id="DaJtr_ad31TglInZLsW0-86" value="" style="endArrow=none;html=1;startSize=6;endSize=6;sourcePerimeterSpacing=8;targetPerimeterSpacing=8;endFill=0;" parent="1" edge="1">
          <mxGeometry width="50" height="50" relative="1" as="geometry">
            <mxPoint x="910" y="270" as="sourcePoint" />
            <mxPoint x="910" y="650" as="targetPoint" />
            <Array as="points">
              <mxPoint x="910" y="460" />
            </Array>
          </mxGeometry>
        </mxCell>
        <mxCell id="DaJtr_ad31TglInZLsW0-90" value="" style="endArrow=classic;html=1;startSize=6;endSize=6;sourcePerimeterSpacing=8;targetPerimeterSpacing=8;entryX=0;entryY=0.5;entryDx=0;entryDy=0;" parent="1" target="DaJtr_ad31TglInZLsW0-82" edge="1">
          <mxGeometry width="50" height="50" relative="1" as="geometry">
            <mxPoint x="910" y="460" as="sourcePoint" />
            <mxPoint x="1000" y="500" as="targetPoint" />
          </mxGeometry>
        </mxCell>
      </root>
    </mxGraphModel>
  </diagram>
</mxfile>
